<svg version="1.0" xmlns="http://www.w3.org/2000/svg"
 width="1080.000000pt" height="1080.000000pt" viewBox="0 0 1080.000000 1080.000000"
 preserveAspectRatio="xMidYMid meet">

<g transform="translate(0.000000,1080.000000) scale(0.100000,-0.100000)"
fill="rgba(255, 255, 255, 0.896)" stroke="none">
<path d="M3633 10560 c-91 -19 -177 -81 -192 -138 -20 -74 -40 -540 -57 -1309
-3 -167 -10 -303 -14 -303 -4 0 -277 128 -606 284 -596 282 -865 405 -987 451
-54 20 -71 22 -106 14 -103 -23 -193 -99 -242 -203 -46 -98 -47 -125 -9 -202
72 -148 103 -165 1235 -694 297 -139 544 -256 548 -260 4 -4 -104 -44 -240
-89 -275 -91 -443 -161 -608 -253 -481 -268 -854 -653 -1099 -1137 -304 -600
-393 -1234 -260 -1851 105 -489 326 -913 678 -1303 230 -254 464 -431 787
-592 225 -113 390 -175 594 -225 135 -32 175 -45 175 -58 0 -11 -153 -82 -592
-273 -732 -319 -888 -391 -1042 -482 -96 -57 -171 -128 -192 -182 -33 -88 4
-203 93 -287 60 -56 97 -75 164 -88 45 -9 62 -6 162 26 175 57 514 196 1055
434 273 120 497 218 498 217 1 -1 7 -276 13 -612 18 -971 31 -1178 81 -1281
26 -53 77 -86 167 -109 69 -18 155 -10 215 20 51 26 107 86 118 125 24 90 43
601 59 1604 5 296 13 542 18 546 9 8 717 317 2808 1225 2426 1053 2957 1286
3071 1343 142 72 240 245 233 411 -3 65 -10 89 -42 154 -24 48 -63 104 -100
144 -60 64 -70 70 -352 209 -378 185 -967 465 -1870 889 -718 338 -1049 493
-2240 1055 -330 156 -809 381 -1065 501 l-465 217 -6 844 c-7 914 -12 1023
-54 1094 -56 96 -204 151 -332 124z m487 -3145 c134 -24 313 -85 454 -154 560
-273 977 -800 1106 -1397 17 -78 23 -147 27 -327 10 -420 -39 -681 -187 -982
-174 -356 -438 -638 -792 -844 -190 -110 -454 -210 -624 -236 -118 -18 -602
-21 -734 -5 -311 39 -700 216 -967 442 -491 415 -757 1072 -693 1709 26 249
88 474 195 697 113 234 234 401 431 592 301 291 670 471 1064 519 128 16 610
7 720 -14z m2218 -694 c97 -43 562 -261 1032 -483 470 -223 959 -454 1085
-513 310 -145 765 -369 790 -388 19 -15 13 -19 -125 -85 -80 -38 -212 -99
-295 -135 -1210 -529 -2401 -1046 -2620 -1138 -82 -34 -144 -54 -149 -49 -5 5
14 49 46 107 82 144 125 233 173 357 138 352 197 679 198 1081 0 460 -81 813
-277 1202 -31 62 -56 115 -56 118 0 12 31 1 198 -74z"/>
</g>
</svg>
